<?xml version="1.0" encoding="utf-8"?>
<svg viewBox="0 0 1410 1007" xmlns="http://www.w3.org/2000/svg">
  <rect id="bg" height="1007" width="1410" y="0" x="0" fill="#ffffff" style=""/>
  <g id="title" style="">
    <text id="tttitle" x="7.1" y="19" font-size="20" font-weight="bold" fill="#001e0d" font-family="Arial" style="white-space: pre;"><tspan id="trsvg1">SINGAPORE MRT/LRT MAP</tspan></text>
  </g>
  <g id="lines" fill="none" stroke-width="4" style="">
    <g id="ewl" stroke="#009645">
      <path d="m1227 638v16q0 20 20 20h84"/>
      <path d="m1284 523-25 25 q-14.14 14.14-14.14 34.14 v37 q0 20 -20 20 h-220 q-20 0 -34.14 14.14 l-182 182 q-14.14 14.14-34.14 14.14 h-43 q-20 0 -34.14 -14.14 l-9-9 q-14.14-14.14-14.14-34.14 q0-20-14.14-34.14 l-230.4-230.4 q-14.14-14.14-34.14-14.14 h-280.6 q-20 0-20 20 v82"/>
    </g>
    <g id="nsl" stroke="#d42e12">
      <path d="m286 514v-407q0-20 20-20h391.5 q20 0 34.4 14.4 l40 40 q14.4 14.14 14.14 34.14v255 q0 20-14.14 34.14 l-104 104 q-14.14 14.14 0 28.28 l162 162 q14.14 14.14 0 28.28 l-29.7 29.7 q-14.14 14.14 -14.14 20 v125"/>
    </g>
    <g id="nel" stroke="#9900aa">
      <path d="m582 866 l173.2-173.2 q14.14-14.14 14.14-28.28 v-28 q0 -20 14.14 -34.34 l390 -390"/>
    </g>
    <g id="ccl" stroke="#fa9e0d">
      <path d="m754 689q20 0 34.14 14.14 l124 124 q14.14 14.14 28.28 0"/>
      <path d="m582 867 A 265 265 0 1 1 793 914"/>
    </g>
    <g id="dtl" stroke="#005ec4">
      <path d="m479 225 v157 q0 20 14.14 34.14 l48.5 48.5 q14.14 14.14 34.14 14.14 h56 q20 0 34.14 14.14 l284 284 q13 14.14 0 30 c-16.1 22.6-47.3 54.9-93.9 80 q-20.34 9-41.1-10 l-121-121"/>
      <path d="M 698 760 C 688.573 750.573 688.573 741.147 698 731.72 L 708 721.72 C 717.427 712.293 726.853 707.58 736.28 707.58 L 797.28 707.58 C 810.613 707.58 821.993 702.867 831.42 693.44 L 930.42 594.44 C 939.847 585.013 951.227 580.3 964.56 580.3 L 1266.06 580.3 C 1279.393 580.3 1286.06 586.967 1286.06 600.3 L 1286.06 674.903"/>
    </g>
    <g id="tel" stroke="#784008">
      <path d="m496 34 l147.8 147.8 q14.14 14.14 14.14 34.14 v557 q0 20 14.14 34.14 l132 132 q14.14 14.14 34.14 14.14 h40"/>
    </g>
    <g id="lrt" stroke="#999999">
      <path d="m284.4 225.6h207 q10 0 17.07-7.07 l19.2-19.2 q7.07-7.07 17.07-7.07 h10 q10 0 10 10 v46.6 q0 10-10 10 h-10 q-10 0-17.07-7.07 l-19.2-19.2 q-7.07-7.07-17.07-7.07"/>
      <path d="m1081 306 l-7.76-7.76 q-7.07-7.07-7.07-17.07 v-20 q0-10-7.07-17.07 l-19-19 q-7.07-7.07-14.14 0 l-26 26 q-7.07 7.07 0 14.14 l 19 19 q 7.07 7.07 17.07 7.07 h 20 q 10 0 17.07 7.07"/>
      <path d="m1081 306 l 7.76 7.76 q 7.07 7.07 7.07 17.07 v 20 q0 10 7.07 17.07 l 19 19 q 7.07 7.07 14.14 0 l 26-26 q 7.07-7.07 0-14.14 l-19-19 q-7.07-7.07-17.07-7.07 h-20 q-10 0-17.07-7.07"/>
      <path d="m1176 209.5 l-7.76-7.76 q-7.07-7.07-7.07-17.07 v-20 q0-10-7.07-17.07 l-19-19 q-7.07-7.07-14.14 0 l-26 26 q-7.07 7.07 0 14.14 l 19 19 q 7.07 7.07 17.07 7.07 h 20 q 10 0 17.07 7.07"/>
      <path d="m1177 209.5 l 7.76 7.76 q 7.07 7.07 7.07 17.07 v 20 q0 10 7.07 17.07 l 19 19 q 7.07 7.07 14.14 0 l 26-26 q 7.07-7.07 0-14.14 l-19-19 q-7.07-7.07-17.07-7.07 h-20 q-10 0-17.07-7.07"/>
    </g>
  </g>
  <g id="stns_icons" fill="#ffffff" stroke-width="2" style="">
    <g id="stns_ewl" stroke="#009645">
      <circle id="cg2" cx="1334" cy="674" r="3"/>
      <circle id="ew1" cx="1283" cy="524.5" r="3"/>
      <circle id="ew3" cx="1245" cy="614" r="3"/>
      <circle id="ew5" cx="1186" cy="639" r="3"/>
      <circle id="ew6" cx="1126" cy="639" r="3"/>
      <circle id="ew7" cx="1066" cy="639" r="3"/>
      <circle id="ew9" cx="984" cy="643" r="3"/>
      <circle id="ew10" cx="946" cy="678" r="3"/>
      <circle id="ew11" cx="926" cy="698" r="3"/>
      <circle id="ew15" cx="698.5" cy="848" r="3"/>
      <circle id="ew17" cx="630" cy="748" r="3"/>
      <circle id="ew18" cx="595.5" cy="714" r="3"/>
      <circle id="ew19" cx="554.7" cy="673" r="3"/>
      <circle id="ew20" cx="519" cy="637" r="3"/>
      <circle id="ew22" cx="451" cy="570" r="3"/>
      <circle id="ew23" cx="407" cy="526" r="3"/>
      <circle id="ew25" cx="247" cy="514" r="3"/>
      <circle id="ew26" cx="202" cy="514" r="3"/>
      <circle id="ew27" cx="155" cy="514" r="3"/>
      <circle id="ew28" cx="120" cy="514" r="3"/>
      <circle id="ew29" cx="90" cy="514" r="3"/>
      <circle id="ew30" cx="75" cy="542" r="3"/>
      <circle id="ew31" cx="75" cy="570" r="3"/>
      <circle id="ew32" cx="75" cy="598" r="3"/>
      <circle id="ew33" cx="75" cy="616" r="3"/>
    </g>
    <g id="stns_nsl" stroke="#d42e12">
      <circle id="ns2" cx="286" cy="413" r="3"/>
      <circle id="ns3" cx="286" cy="351" r="3"/>
      <circle id="ns5" cx="286" cy="173" r="3"/>
      <circle id="ns7" cx="352" cy="87" r="3"/>
      <circle id="ns8" cx="435" cy="87" r="3"/>
      <circle id="ns10" cx="612" cy="87" r="3"/>
      <circle id="ns11" cx="685" cy="87" r="3"/>
      <circle id="ns12" cx="735" cy="104" r="3"/>
      <circle id="ns13" cx="775" cy="144" r="3"/>
      <circle id="ns14" cx="786" cy="202" r="3"/>
      <circle id="ns15" cx="786" cy="250" r="3"/>
      <circle id="ns16" cx="786" cy="300" r="3"/>
      <circle id="ns18" cx="786" cy="428" r="3"/>
      <circle id="ns19" cx="770" cy="467" r="3"/>
      <circle id="ns20" cx="739" cy="498" r="3"/>
      <circle id="ns23" cx="702" cy="632" r="3"/>
      <circle id="ns28" cx="786" cy="962" r="3"/>
    </g>
    <g id="stns_nel" stroke="#9900aa">
      <circle id="ne5" cx="723.5" cy="724.5" r="3"/>
      <circle id="ne8" cx="807.5" cy="578.4" r="3"/>
      <circle id="ne9" cx="833" cy="553" r="3"/>
      <circle id="ne10" cx="861" cy="525" r="3"/>
      <circle id="ne11" cx="888" cy="498" r="3"/>
      <circle id="ne13" cx="956" cy="430" r="3"/>
      <circle id="ne14" cx="988" cy="398.5" r="3"/>
      <circle id="ne15" cx="1018" cy="368" r="3"/>
    </g>
    <g id="stns_ccl" stroke="#fa9e0d">
      <circle id="cc2" cx="824" cy="739" r="3"/>
      <circle id="cc3" cx="870" cy="785" r="3"/>
      <circle id="cc5" cx="980" cy="766" r="3"/>
      <circle id="cc6" cx="997" cy="720" r="3"/>
      <circle id="cc7" cx="1002" cy="695" r="3"/>
      <circle id="cc8" cx="1005" cy="670" r="3"/>
      <circle id="cc11" cx="984.5" cy="552" r="3"/>
      <circle id="cc12" cx="964" cy="514" r="3"/>
      <circle id="cc14" cx="859" cy="418" r="3"/>
      <circle id="cc16" cx="721" cy="390.8" r="3"/>
      <circle id="cc18" cx="601" cy="429" r="3"/>
      <circle id="cc20" cx="515.5" cy="514" r="3"/>
      <circle id="cc21" cx="497" cy="549" r="3"/>
      <circle id="cc23" cx="475.7" cy="637" r="3"/>
      <circle id="cc24" cx="476" cy="674" r="3"/>
      <circle id="cc25" cx="481" cy="709" r="3"/>
      <circle id="cc26" cx="493.5" cy="750" r="3"/>
      <circle id="cc27" cx="513.8" cy="792" r="3"/>
      <circle id="cc28" cx="540" cy="827.5" r="3"/>
    </g>
    <g id="stns_dtl" stroke="#005ec4">
      <circle id="dt2" cx="479" cy="265" r="3"/>
      <circle id="dt3" cx="479" cy="297" r="3"/>
      <circle id="dt4" cx="479" cy="329" r="3"/>
      <circle id="dt5" cx="479" cy="361" r="3"/>
      <circle id="dt6" cx="485" cy="406" r="3"/>
      <circle id="dt7" cx="502" cy="425" r="3"/>
      <circle id="dt8" cx="524" cy="447.5" r="3"/>
      <circle id="dt13" cx="818" cy="645" r="3"/>
      <circle id="dt17" cx="804" cy="866" r="3"/>
      <circle id="dt18" cx="742" cy="803" r="3"/>
      <circle id="dt20" cx="703.5" cy="727" r="3"/>
      <circle id="dt21" cx="832" cy="693" r="3"/>
      <circle id="dt22" cx="865" cy="659.8" r="3"/>
      <circle id="dt23" cx="896" cy="629" r="3"/>
      <circle id="dt24" cx="927" cy="598" r="3"/>
      <circle id="dt25" cx="965" cy="580" r="3"/>
      <circle id="dt27" cx="1046" cy="580" r="3"/>
      <circle id="dt28" cx="1089" cy="580" r="3"/>
      <circle id="dt29" cx="1129" cy="580" r="3"/>
      <circle id="dt30" cx="1172.5" cy="580" r="3"/>
      <circle id="dt31" cx="1211" cy="580" r="3"/>
      <circle id="dt33" cx="1286" cy="612" r="3"/>
      <circle id="dt34" cx="1286" cy="647" r="3"/>
    </g>
    <g id="stns_tel" stroke="#784008">
      <circle id="te1" cx="496" cy="34" r="3"/>
      <circle id="te3" cx="589" cy="127" r="3"/>
      <circle id="te4" cx="624" cy="161.8" r="3"/>
      <circle id="te5" cx="658" cy="208" r="3"/>
      <circle id="te6" cx="658" cy="247" r="3"/>
      <circle id="te7" cx="658" cy="309" r="3"/>
      <circle id="te8" cx="658" cy="357" r="3"/>
      <circle id="te10" cx="658" cy="444" r="3"/>
      <circle id="te12" cx="658" cy="517" r="3"/>
      <circle id="te13" cx="658" cy="549" r="3"/>
      <circle id="te15" cx="658" cy="648" r="3"/>
      <circle id="te16" cx="658" cy="694" r="3"/>
      <circle id="te18" cx="690" cy="825" r="3"/>
      <circle id="te19" cx="745" cy="881" r="3"/>
      <circle id="te22" cx="880" cy="953" r="3"/>
    </g>
    <g id="stns_ints" stroke="#000000" stroke-width="3">
      <circle id="cc1" cx="760.2" cy="689" r="6"/>
      <circle id="ce2" cx="786" cy="916" r="6"/>
      <circle id="ce1" cx="887" cy="871" r="6"/>
      <circle id="cc4" cx="953.3" cy="806" r="6"/>
      <circle id="cc9" cx="1005" cy="639" r="6"/>
      <circle id="cc10" cx="995" cy="580" r="6"/>
      <circle id="cc13" cx="923" cy="463.2" r="6"/>
      <circle id="cc15" cx="786" cy="394" r="6"/>
      <circle id="cc17" cx="658" cy="402.8" r="6"/>
      <circle id="cc19" cx="548" cy="471.5" r="6"/>
      <circle id="cc22" cx="481" cy="599" r="6"/>
      <circle id="cc29" cx="581" cy="866" r="6"/>
      <circle id="cg1" cx="1286" cy="674" r="6"/>
      <circle id="ew2" cx="1245" cy="580.5" r="6"/>
      <circle id="ew4" cx="1227" cy="639" r="6"/>
      <circle id="ew12" cx="899" cy="726" r="6"/>
      <circle id="ew13" cx="830.3" cy="790" r="6"/>
      <circle id="ew14" cx="799" cy="822" r="6"/>
      <circle id="ew16" cx="657" cy="790.5" r="6"/>
      <circle id="ew24" cx="286" cy="514" r="6"/>
      <circle id="ne4" cx="693.5" cy="754" r="6"/>
      <circle id="ne7" cx="780" cy="606.5" r="6"/>
      <circle id="ne16" cx="1080.7" cy="305.3" r="6"/>
      <circle id="ne17" cx="1177" cy="209.5" r="6"/>
      <circle id="ns4" cx="286" cy="225.5" r="6"/>
      <circle id="ns9" cx="549" cy="87" r="6"/>
      <circle id="ns21" cx="705" cy="532" r="6"/>
      <circle id="ns22" cx="660" cy="586" r="6"/>
      <circle id="dt1" cx="479" cy="225.5" r="6"/>
      <circle id="dt10" cx="658" cy="486" r="6"/>
    </g>
    <g id="stns_bplrt" stroke="#999999" stroke-width="1.7">
      <circle id="bp2" cx="321" cy="226" r="2.6"/>
      <circle id="bp3" cx="356" cy="226" r="2.6"/>
      <circle id="bp4" cx="391" cy="226" r="2.6"/>
      <circle id="bp5" cx="426" cy="226" r="2.6"/>
      <circle id="bp7" cx="521" cy="245" r="2.6"/>
      <circle id="bp8" cx="546" cy="259" r="2.6"/>
      <circle id="bp9" cx="565" cy="248" r="2.6"/>
      <circle id="bp10" cx="565" cy="226" r="2.6"/>
      <circle id="bp11" cx="565" cy="204" r="2.6"/>
      <circle id="bp12" cx="546" cy="192" r="2.6"/>
      <circle id="bp13" cx="521" cy="206" r="2.6"/>
    </g>
    <g id="stns_sklrt" stroke="#999999" stroke-width="1.7">
      <circle id="se1" cx="1127" cy="321" r="2.6"/>
      <circle id="se2" cx="1154" cy="339" r="2.6"/>
      <circle id="se3" cx="1151" cy="372" r="2.6"/>
      <circle id="se4" cx="1113" cy="377.3" r="2.6"/>
      <circle id="se5" cx="1095.5" cy="348.5" r="2.6"/>
      <circle id="sw1" cx="1066.5" cy="273.5" r="2.6"/>
      <circle id="sw2" cx="1061.4" cy="247" r="2.6"/>
      <circle id="sw3" cx="1044" cy="229" r="2.6"/>
      <circle id="sw4" cx="1022" cy="229" r="2.6"/>
      <circle id="sw5" cx="1002" cy="249" r="2.6"/>
      <circle id="sw6" cx="1003.5" cy="269.5" r="2.6"/>
      <circle id="sw7" cx="1018.7" cy="284.5" r="2.6"/>
      <circle id="sw8" cx="1047" cy="291.5" r="2.6"/>
    </g>
    <g id="stns_pglrt" stroke="#999999" stroke-width="1.7">
      <circle id="pe1" cx="1191.7" cy="247.3" r="2.6"/>
      <circle id="pe2" cx="1198" cy="270" r="2.6"/>
      <circle id="pe3" cx="1215" cy="287" r="2.6"/>
      <circle id="pe4" cx="1245" cy="277.7" r="2.6"/>
      <circle id="pe5" cx="1254" cy="246.5" r="2.6"/>
      <circle id="pe6" cx="1238" cy="230.5" r="2.6"/>
      <circle id="pe7" cx="1214" cy="224" r="2.6"/>
      <circle id="pw1" cx="1161" cy="177" r="2.6"/>
      <circle id="pw2" cx="1156" cy="150" r="2.6"/>
      <circle id="pw3" cx="1139" cy="132" r="2.6"/>
      <circle id="pw4" cx="1106" cy="144" r="2.6"/>
      <circle id="pw5" cx="1098.5" cy="173" r="2.6"/>
      <circle id="pw6" cx="1115.5" cy="190" r="2.6"/>
      <circle id="pw7" cx="1141" cy="194.5" r="2.6"/>
    </g>
  </g>
  <g id="stns_labels" font-family="Arial" style="">
    <g id="lbewl" font-size="12" fill="#000000">
      <text id="lbcg2a" x="1310" y="687" style="white-space: pre;"><tspan id="trsvg61">Changi</tspan></text>
      <text id="lbcg2b" x="1312" y="699" style="white-space: pre;"><tspan id="trsvg62">Airport</tspan></text>
      <text id="lbew1" x="1289" y="522" style="white-space: pre;"><tspan id="trsvg63">Pasir Ris</tspan></text>
      <text id="lbew3" x="1209" y="617" style="white-space: pre;"><tspan id="trsvg64">Simei</tspan></text>
      <text id="lbew5" x="1171" y="652" style="white-space: pre;"><tspan id="trsvg65">Bedok</tspan></text>
      <text id="lbew6" x="1092" y="633" style="white-space: pre;"><tspan id="trsvg66">Kembangan</tspan></text>
      <text id="lbew7" x="1050" y="652" style="white-space: pre;"><tspan id="trsvg67">Eunos</tspan></text>
      <text id="lbew9" x="945" y="638" style="white-space: pre;"><tspan id="trsvg68">Aljunied</tspan></text>
      <text id="lbew10" x="954" y="682" style="white-space: pre;"><tspan id="trsvg69">Kallang</tspan></text>
      <text id="lbew11" x="875" y="693" style="white-space: pre;"><tspan id="trsvg70">Lavender</tspan></text>
      <text id="lbew15a" x="650" y="857" style="white-space: pre;"><tspan id="trsvg71">Tanjong</tspan></text>
      <text id="lbew15b" x="660" y="869" style="white-space: pre;"><tspan id="trsvg72">Pagar</tspan></text>
      <text id="lbew17a" x="595" y="753" style="white-space: pre;"><tspan id="trsvg73">Tiong</tspan></text>
      <text id="lbew17b" x="593" y="765" style="white-space: pre;"><tspan id="trsvg74">Bahru</tspan></text>
      <text id="lbew18" x="554" y="721" style="white-space: pre;"><tspan id="trsvg75">Redhill</tspan></text>
      <text id="lbew19" x="561" y="672.5" style="white-space: pre;"><tspan id="trsvg76">Queenstown</tspan></text>
      <text id="lbew20" x="525" y="636" style="white-space: pre;"><tspan id="trsvg77">Commonwealth</tspan></text>
      <text id="lbew22" x="418" y="581" style="white-space: pre;"><tspan id="trsvg78">Dover</tspan></text>
      <text id="lbew23" x="414" y="526" style="white-space: pre;"><tspan id="trsvg79">Clementi</tspan></text>
      <text id="lbew25a" x="224" y="527" style="white-space: pre;"><tspan id="trsvg80">Chinese</tspan></text>
      <text id="lbew25b" x="226" y="539" style="white-space: pre;"><tspan id="trsvg81">Garden</tspan></text>
      <text id="lbew26" x="178" y="508" style="white-space: pre;"><tspan id="trsvg82">Lakeside</tspan></text>
      <text id="lbew27a" x="122" y="496" style="white-space: pre;"><tspan id="trsvg83">Boon</tspan></text>
      <text id="lbew27b" x="131" y="508" style="white-space: pre;"><tspan id="trsvg84">Lay</tspan></text>
      <text id="lbew28" x="100" y="527" style="white-space: pre;"><tspan id="trsvg85">Pioneer</tspan></text>
      <text id="lbew29a" x="80" y="496" style="white-space: pre;"><tspan id="trsvg86">Joo </tspan></text>
      <text id="lbew29b" x="76" y="508" style="white-space: pre;"><tspan id="trsvg87">Koon </tspan></text>
      <text id="lbew30" x="15" y="546" style="white-space: pre;"><tspan id="trsvg88">Gul Circle</tspan></text>
      <text id="lbew31a" x="41" y="566" style="white-space: pre;"><tspan id="trsvg89">Tuas</tspan></text>
      <text id="lbew31b" x="19" y="578" style="white-space: pre;"><tspan id="trsvg90">Crescent</tspan></text>
      <text id="lbew32a" x="10" y="596" style="white-space: pre;"><tspan id="trsvg91">Tuas West</tspan></text>
      <text id="lbew32b" x="39" y="608" style="white-space: pre;"><tspan id="trsvg92">Road</tspan></text>
      <text id="lbew33" x="15" y="620" style="white-space: pre;"><tspan id="trsvg93">Tuas Link</tspan></text>
    </g>
    <g id="lbnsl" font-size="12" fill="#000000">
      <text id="lbns2a" x="292" y="411" style="white-space: pre;"><tspan id="trsvg94">Bukit</tspan></text>
      <text id="lbns2b" x="292" y="423" style="white-space: pre;"><tspan id="trsvg95">Batok</tspan></text>
      <text id="lbns3a" x="292" y="350" style="white-space: pre;"><tspan id="trsvg96">Bukit</tspan></text>
      <text id="lbns3b" x="292" y="362" style="white-space: pre;"><tspan id="trsvg97">Gombak</tspan></text>
      <text id="lbns6" x="292" y="175" style="white-space: pre;"><tspan id="trsvg99">Yew Tee</tspan></text>
      <text id="lbns7" x="335.5" y="80" style="white-space: pre;"><tspan id="trsvg101">Kranji</tspan></text>
      <text id="lbns8" x="410" y="80" style="white-space: pre;"><tspan id="trsvg102">Marsiling</tspan></text>
      <text id="lbns10" x="586" y="80" style="white-space: pre;"><tspan id="trsvg104">Admiralty</tspan></text>
      <text id="lbns11" x="650" y="80" style="white-space: pre;"><tspan id="trsvg105">Sembawang</tspan></text>
      <text id="lbns12" x="742" y="108" style="white-space: pre;"><tspan id="trsvg106">Canberra</tspan></text>
      <text id="lbns13" x="730" y="151" style="white-space: pre;"><tspan id="trsvg107">Yishun</tspan></text>
      <text id="lbns14" x="746" y="205" style="white-space: pre;"><tspan id="trsvg108">Khatib</tspan></text>
      <text id="lbns15a" x="763" y="246" style="white-space: pre;"><tspan id="trsvg109">Yio</tspan></text>
      <text id="lbns15b" x="727" y="258" style="white-space: pre;"><tspan id="trsvg110">Chu Kang</tspan></text>
      <text id="lbns16a" x="758" y="317" style="white-space: pre;"><tspan id="trsvg111">Ang</tspan></text>
      <text id="lbns16b" x="742" y="329" style="white-space: pre;"><tspan id="trsvg112">Mo Kio</tspan></text>
      <text id="lbns18" x="734" y="432" style="white-space: pre;"><tspan id="trsvg113">Braddell</tspan></text>
      <text id="lbns19a" x="779" y="473" style="white-space: pre;"><tspan id="trsvg114">Toa</tspan></text>
      <text id="lbns19b" x="779" y="485" style="white-space: pre;"><tspan id="trsvg115">Payoh</tspan></text>
      <text id="lbns20" x="748" y="504" style="white-space: pre;"><tspan id="trsvg116">Novena</tspan></text>
      <text id="lbns23" x="709" y="634" style="white-space: pre;"><tspan id="trsvg118">Somerset</tspan></text>
      <text id="lbns28a" x="745" y="972" style="white-space: pre;"><tspan id="trsvg119">Marina</tspan></text>
      <text id="lbns28b" x="724" y="984" style="white-space: pre;"><tspan id="trsvg120">South Pier</tspan></text>
    </g>
    <g id="lbnel" font-size="12" fill="#000000">
      <text id="lbne5a" x="730" y="729" style="white-space: pre;"><tspan id="trsvg121">Clarke</tspan></text>
      <text id="lbne5b" x="730" y="741" style="white-space: pre;"><tspan id="trsvg122">Quay</tspan></text>
      <text id="lbne8a" x="810" y="591" style="white-space: pre;"><tspan id="trsvg123">Farrer</tspan></text>
      <text id="lbne8b" x="810" y="603" style="white-space: pre;"><tspan id="trsvg124">Park</tspan></text>
      <text id="lbne9" x="838" y="564" style="white-space: pre;"><tspan id="trsvg125">Boon Keng</tspan></text>
      <text id="lbne10" x="867" y="532" style="white-space: pre;"><tspan id="trsvg126">Potong Pasir</tspan></text>
      <text id="lbne11" x="893" y="509" style="white-space: pre;"><tspan id="trsvg127">Woodleigh</tspan></text>
      <text id="lbne13" x="961" y="441" style="white-space: pre;"><tspan id="trsvg128">Kovan</tspan></text>
      <text id="lbne14" x="996" y="403" style="white-space: pre;"><tspan id="trsvg129">Hougang</tspan></text>
      <text id="lbne15" x="962" y="365" style="white-space: pre;"><tspan id="trsvg130">Buangkok</tspan></text>
    </g>
    <g id="lbccl" font-size="12" fill="#000000">
      <text id="lbcc2a" x="830" y="727" style="white-space: pre;"><tspan id="trsvg132">Bras</tspan></text>
      <text id="lbcc2b" x="830" y="739" style="white-space: pre;"><tspan id="trsvg133">Basah</tspan></text>
      <text id="lbcc3" x="872" y="779" style="white-space: pre;"><tspan id="trsvg134">Esplanade</tspan></text>
      <text id="lbcc5a" x="950" y="748" style="white-space: pre;"><tspan id="trsvg135">Nicoll</tspan></text>
      <text id="lbcc5b" x="934" y="760" style="white-space: pre;"><tspan id="trsvg136">Highway</tspan></text>
      <text id="lbcc6" x="1004" y="726" style="white-space: pre;"><tspan id="trsvg137">Stadium</tspan></text>
      <text id="lbcc7" x="1008" y="700" style="white-space: pre;"><tspan id="trsvg138">Mountbatten</tspan></text>
      <text id="lbcc8" x="1011" y="674" style="white-space: pre;"><tspan id="trsvg139">Dakota</tspan></text>
      <text id="lbcc11" x="989" y="556" style="white-space: pre;"><tspan id="trsvg140">Tai Seng</tspan></text>
      <text id="lbcc12" x="968" y="514" style="white-space: pre;"><tspan id="trsvg141">Bartley</tspan></text>
      <text id="lbcc14a" x="879" y="413" style="white-space: pre;"><tspan id="trsvg142">Lorong</tspan></text>
      <text id="lbcc14b" x="879" y="425" style="white-space: pre;"><tspan id="trsvg143">Chuan</tspan></text>
      <text id="lbcc16" x="690" y="383" style="white-space: pre;"><tspan id="trsvg144">Marymount</tspan></text>
      <text id="lbcc20" x="522" y="520" style="white-space: pre;"><tspan id="trsvg146">Farrer Road</tspan></text>
      <text id="lbcc21a" x="504" y="556" style="white-space: pre;"><tspan id="trsvg147">Holland</tspan></text>
      <text id="lbcc21b" x="504" y="568" style="white-space: pre;"><tspan id="trsvg148">Village</tspan></text>
      <text id="lbcc23a" x="444" y="635" style="white-space: pre;"><tspan id="trsvg149">one-</tspan></text>
      <text id="lbcc23b" x="441" y="645" style="white-space: pre;"><tspan id="trsvg150">north</tspan></text>
      <text id="lbcc24a" x="483" y="674" style="white-space: pre;"><tspan id="trsvg151">Kent</tspan></text>
      <text id="lbcc24b" x="483" y="686" style="white-space: pre;"><tspan id="trsvg152">Ridge</tspan></text>
      <text id="lbcc25a" x="490" y="713" style="white-space: pre;"><tspan id="trsvg153">Haw Par</tspan></text>
      <text id="lbcc25b" x="490" y="725" style="white-space: pre;"><tspan id="trsvg154">Villa</tspan></text>
      <text id="lbcc26a" x="458" y="758" style="white-space: pre;"><tspan id="trsvg155">Pasir</tspan></text>
      <text id="lbcc26b" x="442" y="770" style="white-space: pre;"><tspan id="trsvg156">Panjang</tspan></text>
      <text id="lbcc27a" x="458" y="798" style="white-space: pre;"><tspan id="trsvg157">Labrador</tspan></text>
      <text id="lbcc27b" x="483" y="810" style="white-space: pre;"><tspan id="trsvg158">Park</tspan></text>
      <text id="lbcc28a" x="504" y="834" style="white-space: pre;"><tspan id="trsvg159">Telok</tspan></text>
      <text id="lbcc28b" x="488" y="846" style="white-space: pre;"><tspan id="trsvg160">Blangah</tspan></text>
    </g>
    <g id="lbdtl" font-size="12" fill="#000000">
      <text id="lbdt2" x="430.5" y="269" style="white-space: pre;"><tspan id="trsvg168">Cashew</tspan></text>
      <text id="lbdt3" x="433" y="301" style="white-space: pre;"><tspan id="trsvg169">Hillview</tspan></text>
      <text id="lbdt5a" x="436" y="358" style="white-space: pre;"><tspan id="trsvg170">Beauty</tspan></text>
      <text id="lbdt5b" x="442" y="370" style="white-space: pre;"><tspan id="trsvg171">World</tspan></text>
      <text id="lbdt6a" x="415" y="396" style="white-space: pre;"><tspan id="trsvg172">King Albert</tspan></text>
      <text id="lbdt6b" x="450" y="408" style="white-space: pre;"><tspan id="trsvg173">Park</tspan></text>
      <text id="lbdt7a" x="503" y="407" style="white-space: pre;"><tspan id="trsvg174">Sixth</tspan></text>
      <text id="lbdt7b" x="503" y="419" style="white-space: pre;"><tspan id="trsvg175">Avenue</tspan></text>
      <text id="lbdt8a" x="529" y="434" style="white-space: pre;"><tspan id="trsvg176">Tan</tspan></text>
      <text id="lbdt8b" x="529" y="446" style="white-space: pre;"><tspan id="trsvg177">Kah Kee</tspan></text>
      <text id="lbdt13" x="775" y="655" style="white-space: pre;"><tspan id="trsvg179">Rochor</tspan></text>
      <text id="lbdt17" x="809" y="865" style="white-space: pre;"><tspan id="trsvg180">Downtown</tspan></text>
      <text id="lbdt18a" x="747" y="789" style="white-space: pre;"><tspan id="trsvg181">Telok</tspan></text>
      <text id="lbdt18b" x="747" y="801" style="white-space: pre;"><tspan id="trsvg182">Ayer</tspan></text>
      <text id="lbdt20a" x="685" y="708" style="white-space: pre;"><tspan id="trsvg183">Fort</tspan></text>
      <text id="lbdt20b" x="662" y="720" style="white-space: pre;"><tspan id="trsvg184">Canning</tspan></text>
      <text id="lbdt21" x="780" y="686" style="white-space: pre;"><tspan id="trsvg185">Bencoolen</tspan></text>
      <text id="lbdt22a" x="874" y="660" style="white-space: pre;"><tspan id="trsvg186">Jalan</tspan></text>
      <text id="lbdt22b" x="874" y="671" style="white-space: pre;"><tspan id="trsvg187">Besar</tspan></text>
      <text id="lbdt23" x="825" y="632" style="white-space: pre;"><tspan id="trsvg188">Bendeemer</tspan></text>
      <text id="lbdt24a" x="882" y="582" style="white-space: pre;"><tspan id="trsvg189">Geylang</tspan></text>
      <text id="lbdt24b" x="895" y="594" style="white-space: pre;"><tspan id="trsvg190">Bahru</tspan></text>
      <text id="lbdt25" x="951.5" y="595" style="white-space: pre;"><tspan id="trsvg191">Mattar</tspan></text>
      <text id="lbdt27" x="1036" y="575" style="white-space: pre;"><tspan id="trsvg192">Ubi</tspan></text>
      <text id="lbdt28a" x="1077" y="595" style="white-space: pre;"><tspan id="trsvg193">Kaki</tspan></text>
      <text id="lbdt28b" x="1075" y="607" style="white-space: pre;"><tspan id="trsvg194">Bukit</tspan></text>
      <text id="lbdt29a" x="1110" y="562" style="white-space: pre;"><tspan id="trsvg195">Bedok</tspan></text>
      <text id="lbdt29b" x="1112" y="574" style="white-space: pre;"><tspan id="trsvg196">North</tspan></text>
      <text id="lbdt30a" x="1157" y="595" style="white-space: pre;"><tspan id="trsvg197">Bedok</tspan></text>
      <text id="lbdt30b" x="1149" y="607" style="white-space: pre;"><tspan id="trsvg198">Reservoir</tspan></text>
      <text id="lbdt31a" x="1184" y="562" style="white-space: pre;"><tspan id="trsvg199">Tampines</tspan></text>
      <text id="lbdt31b" x="1196" y="574" style="white-space: pre;"><tspan id="trsvg200">West</tspan></text>
      <text id="lbdt33a" x="1292" y="609" style="white-space: pre;"><tspan id="trsvg201">Tampines</tspan></text>
      <text id="lbdt33b" x="1292" y="621" style="white-space: pre;"><tspan id="trsvg202">East</tspan></text>
      <text id="lbdt34a" x="1292" y="643" style="white-space: pre;"><tspan id="trsvg203">Upper</tspan></text>
      <text id="lbdt34b" x="1292" y="655" style="white-space: pre;"><tspan id="trsvg204">Changi</tspan></text>
    </g>
    <g id="lbtel" font-size="12" fill="#000000">
      <text id="lbte1a" x="450" y="29" style="white-space: pre;"><tspan id="trsvg209">Woodlands North</tspan></text>
      <text id="lbte3a" x="596" y="119" style="white-space: pre;"><tspan id="trsvg210">Woodlands</tspan></text>
      <text id="lbte3b" x="596" y="131" style="white-space: pre;"><tspan id="trsvg211">South</tspan></text>
      <text id="lbte4" x="632" y="163" style="white-space: pre;"><tspan id="trsvg212">Springleaf</tspan></text>
      <text id="lbte5" x="665" y="212" style="white-space: pre;"><tspan id="trsvg213">Lentor</tspan></text>
      <text id="lbte6" x="665" y="250" style="white-space: pre;"><tspan id="trsvg214">Mayflower</tspan></text>
      <text id="lbte7a" x="622" y="292" style="white-space: pre;"><tspan id="trsvg215">Bright</tspan></text>
      <text id="lbte7b" x="637" y="304" style="white-space: pre;"><tspan id="trsvg216">Hill</tspan></text>
      <text id="lbte8a" x="621" y="354" style="white-space: pre;"><tspan id="trsvg217">Upper</tspan></text>
      <text id="lbte8b" x="604" y="366" style="white-space: pre;"><tspan id="trsvg218">Thomson</tspan></text>
      <text id="lbte12" x="617" y="520" style="white-space: pre;"><tspan id="trsvg221">Napier</tspan></text>
      <text id="lbte13a" x="610" y="546" style="white-space: pre;"><tspan id="trsvg222">Orchard</tspan></text>
      <text id="lbte13b" x="599" y="558" style="white-space: pre;"><tspan id="trsvg223">Boulevard</tspan></text>
      <text id="lbte15a" x="622" y="647" style="white-space: pre;"><tspan id="trsvg224">Great</tspan></text>
      <text id="lbte15b" x="621" y="659" style="white-space: pre;"><tspan id="trsvg225">World</tspan></text>
      <text id="lbte16" x="603" y="697" style="white-space: pre;"><tspan id="trsvg226">Havelock</tspan></text>
      <text id="lbte18" x="694" y="827" style="white-space: pre;"><tspan id="trsvg227">Maxwell</tspan></text>
      <text id="lbte19a" x="736" y="863" style="white-space: pre;"><tspan id="trsvg228">Shenton</tspan></text>
      <text id="lbte19b" x="746" y="875" style="white-space: pre;"><tspan id="trsvg229">Way</tspan></text>
      <text id="lbte22a" x="876" y="968" style="white-space: pre;"><tspan id="trsvg232">Gardens</tspan></text>
      <text id="lbte22b" x="876" y="980" style="white-space: pre;"><tspan id="trsvg233">by the Bay</tspan></text>
    </g>
    <g id="lbint" font-size="12" fill="#000000" font-weight="bold">
      <text id="lbcc1a" x="708" y="686" style="white-space: pre;"><tspan id="trsvg292">Dhoby</tspan></text>
      <text id="lbcc1b" x="709" y="698" style="white-space: pre;"><tspan id="trsvg293">Ghaut</tspan></text>
      <text id="lbce2a" x="789" y="895" style="white-space: pre;"><tspan id="trsvg294">Marina</tspan></text>
      <text id="lbce2b" x="789" y="907" style="white-space: pre;"><tspan id="trsvg295">Bay</tspan></text>
      <text id="lbce1" x="885" y="888" style="white-space: pre;"><tspan id="trsvg296">Bayfront</tspan></text>
      <text id="lbcc4" x="886" y="797" style="white-space: pre;"><tspan id="trsvg297">Promenade</tspan></text>
      <text id="lbcc9a" x="1010" y="621" style="white-space: pre;"><tspan id="trsvg298">Paya</tspan></text>
      <text id="lbcc9b" x="1010" y="633" style="white-space: pre;"><tspan id="trsvg299">Lebar</tspan></text>
      <text id="lbcc10" x="1001" y="594" style="white-space: pre;"><tspan id="trsvg300">MacPherson</tspan></text>
      <text id="lbcc13" x="933" y="468" style="white-space: pre;"><tspan id="trsvg301">Serangoon</tspan></text>
      <text id="lbcc15" x="793" y="390" style="white-space: pre;"><tspan id="trsvg302">Bishan</tspan></text>
      <text id="lbcc19a" x="491" y="470" style="white-space: pre;"><tspan id="trsvg303">Botanic</tspan></text>
      <text id="lbcc19b" x="486" y="482" style="white-space: pre;"><tspan id="trsvg304">Gardens</tspan></text>
      <text id="lbcc22" x="489" y="600" style="white-space: pre;"><tspan id="trsvg305">Buona Vista</tspan></text>
      <text id="lbcc29" x="495" y="875" style="white-space: pre;"><tspan id="trsvg306">HarbourFront</tspan></text>
      <text id="lbcg1" x="1252" y="687" style="white-space: pre;"><tspan id="trsvg307">Expo</tspan></text>
      <text id="lbew2" x="1250" y="574" style="white-space: pre;"><tspan id="trsvg308">Tampines</tspan></text>
      <text id="lbew4a" x="1235" y="650" style="white-space: pre;"><tspan id="trsvg309">Tanah</tspan></text>
      <text id="lbew4b" x="1235" y="662" style="white-space: pre;"><tspan id="trsvg310">Merah</tspan></text>
      <text id="lbew12" x="908" y="730" style="white-space: pre;"><tspan id="trsvg311">Bugis</tspan></text>
      <text id="lbew13a" x="840" y="799" style="white-space: pre;"><tspan id="trsvg312">City</tspan></text>
      <text id="lbew13b" x="840" y="811" style="white-space: pre;"><tspan id="trsvg313">Hall</tspan></text>
      <text id="lbew14a" x="808" y="831" style="white-space: pre;"><tspan id="trsvg314">Raffles</tspan></text>
      <text id="lbew14b" x="808" y="843" style="white-space: pre;"><tspan id="trsvg315">Place</tspan></text>
      <text id="lbew16a" x="605" y="782" style="white-space: pre;"><tspan id="trsvg316">Outram</tspan></text>
      <text id="lbew16b" x="621" y="794" style="white-space: pre;"><tspan id="trsvg317">Park</tspan></text>
      <text id="lbew24a" x="292" y="495" style="white-space: pre;"><tspan id="trsvg318">Jurong</tspan></text>
      <text id="lbew24b" x="292" y="508" style="white-space: pre;"><tspan id="trsvg319">East</tspan></text>
      <text id="lbns4a" x="247" y="213" style="white-space: pre;"><tspan id="trsvg320">Choa</tspan></text>
      <text id="lbns4b" x="221" y="225" style="white-space: pre;"><tspan id="trsvg321">Chu Kang</tspan></text>
      <text id="lbns21" x="714" y="536" style="white-space: pre;"><tspan id="trsvg322">Newton</tspan></text>
      <text id="lbns9" x="480" y="100" style="white-space: pre;"><tspan id="trsvg103">Woodlands</tspan></text>
      <text id="lbne4" x="702" y="758" style="white-space: pre;"><tspan id="trsvg323">Chinatown</tspan></text>
      <text id="lbne7a" x="739" y="605" style="white-space: pre;"><tspan id="trsvg324">Little</tspan></text>
      <text id="lbne7b" x="738" y="617" style="white-space: pre;"><tspan id="trsvg325">India</tspan></text>
      <text id="lbne16" x="1013" y="309" style="white-space: pre;"><tspan id="trsvg326">Sengkang</tspan></text>
      <text id="lbne17" x="1117" y="215" style="white-space: pre;"><tspan id="trsvg327">Punggol</tspan></text>
      <text id="lbdt1a" x="445" y="240" style="white-space: pre;"><tspan id="trsvg328">Bukit</tspan></text>
      <text id="lbdt1b" x="429" y="252" style="white-space: pre;"><tspan id="trsvg329">Panjang</tspan></text>
      <text id="lbcc17" x="595" y="399" style="white-space: pre;"><tspan id="trsvg145">Caldecott</tspan></text>
      <text id="lbdt10" x="664" y="484" style="white-space: pre;"><tspan id="trsvg178">Stevens</tspan></text>
      <text id="lbns22" x="604" y="590" style="white-space: pre;"><tspan id="trsvg117">Orchard</tspan></text>
    </g>
    <g id="lbbpl" font-size="10" fill="#000000">
      <text id="lbbp2a" x="307" y="211" style="white-space: pre;"><tspan id="trsvg330">South</tspan></text>
      <text id="lbbp2b" x="309" y="221" style="white-space: pre;"><tspan id="trsvg331">View</tspan></text>
      <text id="lbbp3a" x="345" y="239" style="white-space: pre;"><tspan id="trsvg332">Keat</tspan></text>
      <text id="lbbp3b" x="344" y="249" style="white-space: pre;"><tspan id="trsvg333">Hong</tspan></text>
      <text id="lbbp4a" x="380" y="239" style="white-space: pre;"><tspan id="trsvg334">Teck</tspan></text>
      <text id="lbbp4b" x="378" y="249" style="white-space: pre;"><tspan id="trsvg335">Whye</tspan></text>
      <text id="lbbp5" x="407" y="221" style="white-space: pre;"><tspan id="trsvg336">Phoenix</tspan></text>
      <text id="lbbp7" x="525" y="242" style="white-space: pre;"><tspan id="trsvg337">Petir</tspan></text>
      <text id="lbbp8" x="525" y="272" style="white-space: pre;"><tspan id="trsvg338">Pending</tspan></text>
      <text id="lbbp9" x="569" y="251" style="white-space: pre;"><tspan id="trsvg339">Bangkit</tspan></text>
      <text id="lbbp10" x="569" y="229" style="white-space: pre;"><tspan id="trsvg340">Fajar</tspan></text>
      <text id="lbbp11" x="569" y="207" style="white-space: pre;"><tspan id="trsvg341">Segar</tspan></text>
      <text id="lbbp12" x="525" y="186" style="white-space: pre;"><tspan id="trsvg342">Jelapang</tspan></text>
      <text id="lbbp13" x="525" y="215" style="white-space: pre;"><tspan id="trsvg343">Senja</tspan></text>
    </g>
    <g id="lbskl" font-size="10" fill="#000000">
      <text id="lbse1" x="1096" y="315" style="white-space: pre;"><tspan id="trsvg344">Compassvale</tspan></text>
      <text id="lbse2" x="1155" y="335" style="white-space: pre;"><tspan id="trsvg345">Rumbia</tspan></text>
      <text id="lbse3" x="1157" y="379" style="white-space: pre;"><tspan id="trsvg346">Bakau</tspan></text>
      <text id="lbse4" x="1071" y="384" style="white-space: pre;"><tspan id="trsvg347">Kangkar</tspan></text>
      <text id="lbse5" x="1045" y="354" style="white-space: pre;"><tspan id="trsvg348">Ranggung</tspan></text>
      <text id="lbsw1a" x="1071" y="273" style="white-space: pre;"><tspan id="trsvg349">Cheng</tspan></text>
      <text id="lbsw1b" x="1071" y="283" style="white-space: pre;"><tspan id="trsvg350">Lim</tspan></text>
      <text id="lbsw2" x="1065" y="246" style="white-space: pre;"><tspan id="trsvg351">Farmway</tspan></text>
      <text id="lbsw3" x="1048" y="228" style="white-space: pre;"><tspan id="trsvg352">Kupang</tspan></text>
      <text id="lbsw4" x="970" y="226" style="white-space: pre;"><tspan id="trsvg353">Thanggam</tspan></text>
      <text id="lbsw5" x="961" y="246" style="white-space: pre;"><tspan id="trsvg354">Fernvale</tspan></text>
      <text id="lbsw6" x="974" y="277" style="white-space: pre;"><tspan id="trsvg355">Layar</tspan></text>
      <text id="lbsw7" x="973" y="293" style="white-space: pre;"><tspan id="trsvg356">Tongkang</tspan></text>
      <text id="lbsw8" x="1025" y="286" style="white-space: pre;"><tspan id="trsvg357">Renjong</tspan></text>
    </g>
    <g id="lbpgl" font-size="10" fill="#000000">
      <text id="lbpe1" x="1164" y="250" style="white-space: pre;"><tspan id="trsvg358">Cove</tspan></text>
      <text id="lbpe2" x="1154" y="275" style="white-space: pre;"><tspan id="trsvg359">Meridian</tspan></text>
      <text id="lbpe3" x="1160" y="293" style="white-space: pre;"><tspan id="trsvg360">Coral Edge</tspan></text>
      <text id="lbpe4" x="1252" y="282" style="white-space: pre;"><tspan id="trsvg361">Riviera</tspan></text>
      <text id="lbpe5" x="1259" y="245" style="white-space: pre;"><tspan id="trsvg362">Kadaloor</tspan></text>
      <text id="lbpe6" x="1243" y="229" style="white-space: pre;"><tspan id="trsvg363">Oasis</tspan></text>
      <text id="lbpe7" x="1198" y="219" style="white-space: pre;"><tspan id="trsvg364">Damai</tspan></text>
      <text id="lbpw1" x="1166" y="177" style="white-space: pre;"><tspan id="trsvg365">Sam Kee</tspan></text>
      <text id="lbpw2" x="1162" y="150" fill="#aaaaaa" style="white-space: pre;"><tspan id="trsvg366">Teck Lee</tspan></text>
      <text id="lbpw3" x="1145" y="131" style="white-space: pre;"><tspan id="trsvg367">Punggol Point</tspan></text>
      <text id="lbpw4" x="1056" y="142" style="white-space: pre;"><tspan id="trsvg368">Samudera</tspan></text>
      <text id="lbpw5" x="1063" y="181" style="white-space: pre;"><tspan id="trsvg369">Nibong</tspan></text>
      <text id="lbpw6" x="1075" y="198" style="white-space: pre;"><tspan id="trsvg370">Sumang</tspan></text>
      <text id="lbpw7a" x="1131" y="182" style="white-space: pre;"><tspan id="trsvg371">Soo</tspan></text>
      <text id="lbpw7b" x="1130" y="191" style="white-space: pre;"><tspan id="trsvg372">Teck</tspan></text>
    </g>
  </g>
</svg>